<svg width="32" height="32" viewBox="0 0 32 32" fill="none" xmlns="http://www.w3.org/2000/svg">
  <defs>
    <style>
      .icon-light { display: block; }
      .icon-dark { display: none; }
      @media (prefers-color-scheme: dark) {
        .icon-light { display: none; }
        .icon-dark { display: block; }
      }
    </style>
    <linearGradient id="grad-light" x1="0%" y1="0%" x2="100%" y2="100%">
      <stop offset="0%" style="stop-color:#3B82F6;stop-opacity:1" />
      <stop offset="40%" style="stop-color:#8B5CF6;stop-opacity:1" />
      <stop offset="100%" style="stop-color:#EC4899;stop-opacity:1" />
    </linearGradient>
    <linearGradient id="grad-dark" x1="0%" y1="0%" x2="100%" y2="100%">
      <stop offset="0%" style="stop-color:#60A5FA;stop-opacity:1" />
      <stop offset="40%" style="stop-color:#A78BFA;stop-opacity:1" />
      <stop offset="100%" style="stop-color:#F472B6;stop-opacity:1" />
    </linearGradient>
    <filter id="glow-light">
      <feGaussianBlur stdDeviation="2" result="coloredBlur"/>
      <feMerge> 
        <feMergeNode in="coloredBlur"/>
        <feMergeNode in="SourceGraphic"/>
      </feMerge>
    </filter>
    <filter id="glow-dark">
      <feGaussianBlur stdDeviation="3" result="coloredBlur"/>
      <feMerge> 
        <feMergeNode in="coloredBlur"/>
        <feMergeNode in="SourceGraphic"/>
      </feMerge>
    </filter>
  </defs>
  
  <!-- Light theme icon -->
  <g class="icon-light">
    <!-- Glassmorphism background -->
    <rect width="32" height="32" rx="10" fill="url(#grad-light)" fill-opacity="0.15" filter="url(#glow-light)"/>
    <rect width="32" height="32" rx="10" stroke="url(#grad-light)" stroke-width="1.5" fill="none" stroke-opacity="0.4"/>
    
    <!-- Chat bubble with glass effect -->
    <path d="M6 12C6 9.23858 8.23858 7 11 7H21C23.7614 7 26 9.23858 26 12V16C26 18.7614 23.7614 21 21 21H15L10 25V21H11C8.23858 21 6 18.7614 6 16V12Z" 
          fill="url(#grad-light)" fill-opacity="0.9" filter="url(#glow-light)"/>
    
    <!-- AI dots with sparkle effect -->
    <circle cx="12" cy="14.5" r="1.8" fill="rgba(255,255,255,0.95)"/>
    <circle cx="16" cy="14.5" r="1.8" fill="rgba(255,255,255,0.95)"/>
    <circle cx="20" cy="14.5" r="1.8" fill="rgba(255,255,255,0.95)"/>
    
    <!-- Sparkle accent -->
    <path d="M22 9L23 11L25 10L23 12L22 14L21 12L19 10L21 11Z" fill="rgba(255,255,255,0.8)" opacity="0.7"/>
  </g>
  
  <!-- Dark theme icon -->
  <g class="icon-dark">
    <!-- Glassmorphism background -->
    <rect width="32" height="32" rx="10" fill="url(#grad-dark)" fill-opacity="0.25" filter="url(#glow-dark)"/>
    <rect width="32" height="32" rx="10" stroke="url(#grad-dark)" stroke-width="1.5" fill="none" stroke-opacity="0.6"/>
    
    <!-- Chat bubble with glass effect -->
    <path d="M6 12C6 9.23858 8.23858 7 11 7H21C23.7614 7 26 9.23858 26 12V16C26 18.7614 23.7614 21 21 21H15L10 25V21H11C8.23858 21 6 18.7614 6 16V12Z" 
          fill="url(#grad-dark)" fill-opacity="0.95" filter="url(#glow-dark)"/>
    
    <!-- AI dots with enhanced glow -->
    <circle cx="12" cy="14.5" r="1.8" fill="rgba(255,255,255,0.98)"/>
    <circle cx="16" cy="14.5" r="1.8" fill="rgba(255,255,255,0.98)"/>
    <circle cx="20" cy="14.5" r="1.8" fill="rgba(255,255,255,0.98)"/>
    
    <!-- Sparkle accent -->
    <path d="M22 9L23 11L25 10L23 12L22 14L21 12L19 10L21 11Z" fill="rgba(255,255,255,0.9)" opacity="0.9"/>
  </g>
</svg>
